<svg xmlns="http://www.w3.org/2000/svg" viewBox="0 0 64 64">
  <path d="M14 6 L14 58 Q14 60 16 60 L52 60 L52 8 Q52 6 50 6 Z" fill="#8b2500"/>
  <path d="M14 6 L14 58 Q14 60 16 60 L18 60 L18 6 Z" fill="#5a1800"/>
  <rect x="22" y="10" width="26" height="46" rx="1" fill="#a0522d" opacity="0.3"/>
  <rect x="24" y="12" width="22" height="42" rx="1" stroke="#d4a574" stroke-width="1" fill="none"/>
  <rect x="28" y="22" width="14" height="3" rx="1" fill="#d4a574"/>
  <rect x="31" y="28" width="8" height="1.5" rx="0.5" fill="#d4a574" opacity="0.7"/>
  <path d="M14 56 L14 58 Q14 60 16 60 L52 60 L52 58 Z" fill="#5a1800"/>
</svg>
